<svg width="920" height="60" viewBox="0 0 920 60" fill="none" xmlns="http://www.w3.org/2000/svg">
<rect x="0.5" y="0.5" width="159" height="59" rx="5.5" stroke="#1B1B1B"/>
<g opacity="0.3" clip-path="url(#clip0_721_253)">
<path fill-rule="evenodd" clip-rule="evenodd" d="M39.2314 34.7486L42.1655 32.5009C43.7238 34.5351 45.3786 35.4725 47.2224 35.4724C49.0561 35.4722 50.6653 34.5455 52.1535 32.5271L55.1283 34.7206C52.9826 37.6307 50.3129 39.1682 47.2227 39.1684C44.1427 39.1686 41.4481 37.6423 39.2314 34.7486Z" fill="white"/>
<path fill-rule="evenodd" clip-rule="evenodd" d="M47.2124 24.98L41.9902 29.4805L39.5773 26.6807L47.2225 20.0921L54.809 26.6848L52.3847 29.4747L47.2124 24.98Z" fill="white"/>
<path d="M75.1571 23.8894L72.2002 23.8896L72.201 36.2099L75.1579 36.2097L75.1571 23.8894Z" fill="white"/>
<path fill-rule="evenodd" clip-rule="evenodd" d="M66.2254 36.2646C64.4823 36.2648 63.0298 35.7 61.8515 34.5703C60.6732 33.4245 60.0921 31.9558 60.092 30.1643C60.0918 28.3567 60.6889 26.8718 61.867 25.7097C63.0613 24.5314 64.5138 23.9503 66.2407 23.9502C68.3711 23.95 70.2596 24.8699 71.357 26.3062L69.4366 28.3238C68.5165 27.3393 67.5159 26.8391 66.4346 26.8392C65.5146 26.8392 64.7561 27.1459 64.1267 27.7754C63.5134 28.4049 63.2069 29.1957 63.2069 30.148C63.207 31.0679 63.5137 31.8426 64.127 32.472C64.7565 33.0853 65.5151 33.3919 66.4189 33.3918C67.5971 33.3917 68.6299 32.8752 69.4852 31.8583L71.4868 33.7788C70.9382 34.5051 70.1956 35.1023 69.2756 35.5704C68.356 36.0386 67.339 36.2646 66.2254 36.2646Z" fill="white"/>
<path fill-rule="evenodd" clip-rule="evenodd" d="M79.5922 24.8748C79.5923 25.7593 78.8755 26.4765 77.9909 26.4765C77.1062 26.4766 76.3891 25.7595 76.389 24.875C76.389 23.9904 77.106 23.2733 77.9907 23.2732C78.8753 23.2732 79.5922 23.9902 79.5922 24.8748ZM79.4692 27.2156L76.5124 27.2158L76.513 36.2096L79.4698 36.2094L79.4692 27.2156Z" fill="white"/>
<path fill-rule="evenodd" clip-rule="evenodd" d="M85.1854 36.2795C83.7814 36.2796 82.6515 35.8439 81.7639 34.9724C80.8922 34.1009 80.4562 32.9873 80.4561 31.6155C80.456 30.2436 80.8919 29.13 81.7794 28.2584C82.6671 27.3868 83.8129 26.9509 85.2332 26.9509C87.0894 26.9507 88.7194 27.8544 89.478 29.549L87.2024 30.7435C86.7505 29.985 86.1212 29.5977 85.298 29.5977C84.7009 29.5978 84.2166 29.7915 83.8294 30.1788C83.4581 30.5662 83.2645 31.0504 83.2645 31.6153C83.2646 32.7935 84.12 33.665 85.2661 33.6649C86.089 33.6648 86.8475 33.2129 87.1704 32.5188L89.4461 33.8744C88.6714 35.3593 87.0738 36.2794 85.1854 36.2795Z" fill="white"/>
<path fill-rule="evenodd" clip-rule="evenodd" d="M93.1448 23.8883L90.188 23.8885L90.1888 36.2087L93.1456 36.2085L93.1454 33.0721L93.4918 32.749L96.1949 36.2083L99.6346 36.2081L95.4815 30.8932L99.4262 27.2143L95.8131 27.2145L93.1452 29.7029L93.1448 23.8883Z" fill="white"/>
<path fill-rule="evenodd" clip-rule="evenodd" d="M100.168 31.5525L100.167 23.8878L103.248 23.8876L103.248 31.3806C103.248 32.7202 104.029 33.3657 105.158 33.3657C106.27 33.3656 107.067 32.6877 107.067 31.3804L107.067 23.8873L110.147 23.8871L110.147 31.5518C110.147 35.0702 107.677 36.3938 105.158 36.394C102.655 36.3941 100.168 35.0709 100.168 31.5525Z" fill="white"/>
<path fill-rule="evenodd" clip-rule="evenodd" d="M116.801 36.4533C119.182 36.4531 121.113 34.357 121.113 31.7713C121.112 29.1857 119.181 27.0897 116.8 27.0899C115.829 27.09 114.934 27.4383 114.213 28.026L114.213 27.2133L111.379 27.2135L111.38 39.9033L114.214 39.9032L114.213 35.5175C114.934 36.1052 115.83 36.4534 116.801 36.4533ZM114.213 31.7766L114.213 31.7669C114.216 30.6124 115.125 29.6773 116.246 29.6772C117.369 29.6771 118.279 30.6148 118.279 31.7715C118.279 32.9282 117.369 33.866 116.246 33.8661C115.125 33.8661 114.216 32.9311 114.213 31.7766Z" fill="white"/>
</g>
<rect x="190.5" y="0.5" width="159" height="59" rx="5.5" stroke="#1B1B1B"/>
<g opacity="0.3" clip-path="url(#clip1_721_253)">
<path d="M249.615 23.6764L254.192 23.6761C258.112 23.6758 260.59 26.2044 260.59 30.1492C260.591 34.094 258.125 36.6229 254.193 36.6232L249.616 36.6235L249.615 23.6764ZM254.092 34.2588C256.557 34.2587 257.91 32.6781 257.91 30.162C257.91 27.6333 256.557 26.0529 254.091 26.0531L252.296 26.0532L252.296 34.2589L254.092 34.2588V34.2588Z" fill="white"/>
<path d="M267.532 29.7821C267.178 29.5671 266.71 29.466 266.217 29.4661C265.332 29.4661 264.611 29.934 264.421 30.7938L264.422 36.6351L261.817 36.6353L261.816 27.2031L264.434 27.203L264.434 28.1259C264.838 27.4558 265.61 26.9879 266.545 26.9879C266.988 26.9878 267.392 27.0763 267.531 27.1522L267.532 29.7821Z" fill="white"/>
<rect x="199.5" y="2.5" width="159" height="59" rx="5.5" stroke="#1B1B1B"/>
<path d="M272.754 36.8495C270.01 36.8497 268.126 34.8268 268.126 31.9314C268.126 29.0234 270.01 26.9876 272.753 26.9875C275.497 26.9873 277.368 29.0101 277.369 31.9308C277.369 34.8262 275.498 36.8493 272.754 36.8495ZM272.753 29.2127C271.439 29.2128 270.731 30.3508 270.731 31.9313C270.731 33.4864 271.452 34.637 272.754 34.6369C274.056 34.6368 274.777 33.4988 274.777 31.931C274.777 30.3505 274.056 29.2127 272.753 29.2127Z" fill="white"/>
<path d="M281.112 40.1237L278.494 40.1239L278.493 27.202L281.111 27.2018L281.111 27.9858C281.528 27.48 282.464 26.9995 283.475 26.9994C286.219 26.9992 287.774 29.275 287.774 31.9428C287.774 34.598 286.219 36.8613 283.476 36.8615C282.464 36.8615 281.529 36.3811 281.111 35.8754L281.112 40.1237V40.1237ZM281.111 33.4731C281.427 34.1306 282.123 34.573 282.881 34.573C284.297 34.5729 285.144 33.4349 285.144 31.9303C285.144 30.4131 284.297 29.2752 282.881 29.2753C282.097 29.2753 281.427 29.7432 281.111 30.3754L281.111 33.4731Z" fill="white"/>
<path d="M291.542 36.6333L288.9 36.6335L288.899 22.9151L291.541 22.9149L291.542 27.985C291.959 27.4793 292.895 26.9987 293.906 26.9987C296.65 26.9985 298.192 29.2363 298.193 31.9421C298.193 34.6478 296.65 36.8606 293.907 36.8607C292.895 36.8608 291.96 36.3804 291.542 35.8747L291.542 36.6333ZM291.542 33.4724C291.833 34.1298 292.528 34.5723 293.312 34.5723C294.728 34.5722 295.575 33.4342 295.575 31.9296C295.575 30.4124 294.728 29.2745 293.312 29.2746C292.553 29.2746 291.833 29.7425 291.542 30.3747L291.542 33.4724Z" fill="white"/>
<path d="M303.756 36.8727C301.013 36.8729 299.128 34.8501 299.128 31.9547C299.128 29.0466 301.012 27.0109 303.756 27.0107C306.499 27.0105 308.371 29.0334 308.371 31.954C308.371 34.8494 306.487 36.8726 303.756 36.8727ZM303.756 29.236C302.441 29.2361 301.733 30.374 301.733 31.9545C301.733 33.5097 302.454 34.6602 303.756 34.6601C305.058 34.66 305.779 33.522 305.779 31.9542C305.779 30.3738 305.058 29.2359 303.756 29.236Z" fill="white"/>
<path d="M314.25 31.764L317.69 36.6442L314.794 36.6444L312.771 33.6859L310.723 36.6447L307.979 36.6449L311.38 31.8274L308.181 27.2127L311.076 27.2125L312.897 29.8928L314.743 27.2122L317.487 27.212L314.25 31.764Z" fill="white"/>
<path d="M229.941 19.2398L223.127 23.6276L227.843 27.433L234.696 23.1969L229.941 19.2398Z" fill="white"/>
<path d="M223.127 31.1506L229.942 35.626L234.696 31.6682L227.843 27.433L223.127 31.1506Z" fill="white"/>
<path d="M234.696 31.6682L239.451 35.6253L246.24 31.1996L241.536 27.4321L234.696 31.6682Z" fill="white"/>
<path d="M246.239 23.664L239.449 19.2392L234.696 23.1969L241.536 27.4321L246.239 23.664Z" fill="white"/>
<path d="M234.709 32.5153L229.943 36.4731L227.894 35.1457L227.894 36.6376L234.71 40.7211L241.512 36.6367L241.511 35.1447L239.476 36.4725L234.709 32.5153Z" fill="white"/>
</g>
<rect x="380.5" y="0.5" width="159" height="59" rx="5.5" stroke="#1B1B1B"/>
<g opacity="0.3">
<path d="M422.13 26.8305L423.523 26.8304C424.393 26.8304 425.299 27.0044 425.299 28.0144C425.299 28.885 424.742 29.5119 423.105 29.512L421.573 29.5121L422.13 26.8305ZM416.001 36.6867L420.041 36.6864L420.876 32.6813L423.628 32.6812C427.11 32.6809 429.374 30.3823 429.373 27.7007C429.373 24.7753 427.806 23.4172 425.368 23.4173L418.786 23.4178L416.001 36.6867Z" fill="white"/>
<path d="M434.354 27.9789L434.842 31.9491L432.299 31.9492L434.354 27.9789ZM425.613 36.686L429.792 36.6857L430.802 34.8051L435.121 34.8048L435.33 36.6854L439.335 36.6851L437.314 23.4165L433.274 23.4168L425.613 36.686Z" fill="white"/>
<path d="M441.041 31.8093L438.184 23.4165L442.294 23.4162L443.548 28.3614L446.786 23.4159L451.592 23.4156L445.115 31.7742L444.106 36.6848L440.031 36.685L441.041 31.8093Z" fill="white"/>
<path d="M461.344 31.6338C461.1 32.992 460.056 36.997 454.519 36.9974C450.653 36.9977 448.807 34.4903 448.807 30.9381C448.806 26.6545 451.488 23.0672 456.015 23.0669C458.975 23.0667 461.622 24.3551 461.692 28.3253L457.826 28.3255C457.861 27.0718 457.269 26.3753 456.015 26.3754C453.752 26.3755 452.916 28.9876 452.916 30.8682C452.916 31.9826 453.195 33.6542 455.076 33.6541C456.364 33.654 457.095 32.7833 457.339 31.5992L461.344 31.6338Z" fill="white"/>
<path d="M463.712 23.4148L467.821 23.4145L466.846 28.0116L470.573 28.0113L471.548 23.4142L475.657 23.414L472.872 36.6828L468.797 36.6831L469.876 31.4243L466.15 31.4246L465.036 36.6834L460.961 36.6836L463.712 23.4148Z" fill="white"/>
<path d="M476.736 23.4139L487.706 23.4131L487.01 26.8261L480.114 26.8266L479.766 28.4634L486.174 28.463L485.513 31.6322L479.105 31.6326L478.757 33.2695L485.791 33.269L485.095 36.682L473.951 36.6828L476.736 23.4139Z" fill="white"/>
<path d="M490.528 29.6468L487.463 23.4131L491.921 23.4128L493.21 26.8605L495.856 23.4126L500.697 23.4123L495.16 29.6465L498.399 36.6811L493.802 36.6814L492.339 32.99L489.24 36.6817L484.225 36.6821L490.528 29.6468Z" fill="white"/>
<path d="M501.219 24.0043C501.219 23.5167 501.567 23.1336 502.054 23.1336C502.507 23.1335 502.89 23.5166 502.89 24.0042C502.89 24.4917 502.542 24.8748 502.055 24.8749C501.602 24.8749 501.219 24.4918 501.219 24.0043ZM501.045 24.0043C501.045 24.5963 501.497 25.0142 502.055 25.0142C502.612 25.0141 503.064 24.5962 503.064 24.0041C503.064 23.4469 502.612 22.9942 502.054 22.9943C501.497 22.9943 501.044 23.4471 501.045 24.0043ZM501.671 24.5963L501.846 24.5963L501.846 24.1087L502.02 24.1087L502.333 24.6311L502.542 24.631L502.194 24.1087C502.368 24.1087 502.507 24.0042 502.507 23.7952C502.507 23.5514 502.368 23.447 502.089 23.447L501.671 23.447L501.671 24.5963ZM501.845 23.5863L502.089 23.5863C502.229 23.5863 502.333 23.6211 502.333 23.7604C502.333 23.9345 502.194 23.9694 502.02 23.9694L501.845 23.9694L501.845 23.5863V23.5863Z" fill="white"/>
</g>
<rect x="570.5" y="0.5" width="159" height="59" rx="5.5" stroke="#1B1B1B"/>
<g opacity="0.3" clip-path="url(#clip2_721_253)">
<path d="M637.009 30.6153C637.012 29.4788 636.663 28.3693 636.01 27.4388C635.358 26.5083 634.433 25.8023 633.364 25.4176C633.461 24.9216 633.51 24.4173 633.51 23.9118C633.511 22.2386 632.981 20.6083 631.997 19.2552C631.013 17.9021 629.625 16.8959 628.033 16.3813C626.441 15.8667 624.727 15.8702 623.137 16.3913C621.547 16.9124 620.163 17.9243 619.184 19.2814C618.462 18.7219 617.578 18.413 616.664 18.4014C615.751 18.3899 614.858 18.6763 614.122 19.2174C613.386 19.7584 612.847 20.5246 612.585 21.3998C612.324 22.2751 612.355 23.2117 612.673 24.0679C611.601 24.4587 610.675 25.1683 610.018 26.1014C609.362 27.0345 609.007 28.1463 609.001 29.2872C608.998 30.4276 609.349 31.5409 610.005 32.4737C610.661 33.4067 611.59 34.1133 612.664 34.4962C612.569 34.9921 612.521 35.4956 612.519 36.0004C612.518 37.6716 613.047 39.3002 614.031 40.6513C615.015 42.0022 616.402 43.0059 617.993 43.5176C619.584 44.0291 621.296 44.0223 622.883 43.4979C624.47 42.9736 625.849 41.9588 626.822 40.5999C627.542 41.1609 628.426 41.4716 629.338 41.4852C630.251 41.4988 631.143 41.2143 631.879 40.6751C632.616 40.1358 633.156 39.3711 633.418 38.4971C633.681 37.6228 633.651 36.6871 633.334 35.8314C634.406 35.4412 635.333 34.7317 635.99 33.7986C636.647 32.8654 637.002 31.7533 637.007 30.612" fill="white"/>
<path d="M620.012 28.0148L626.141 30.8128L632.327 25.3947C632.416 24.9477 632.46 24.4928 632.459 24.037C632.458 22.5613 631.986 21.1245 631.11 19.9368C630.234 18.7491 629.001 17.8728 627.591 17.4363C626.182 16.9997 624.669 17.0258 623.276 17.5107C621.882 17.9955 620.68 18.9137 619.845 20.1309L618.815 25.4607L620.012 28.0148Z" fill="black"/>
<path d="M613.668 34.5057C613.578 34.9598 613.533 35.4216 613.533 35.8846C613.534 37.3665 614.009 38.8093 614.889 40.0012C615.769 41.1932 617.009 42.0715 618.425 42.5074C619.841 42.9433 621.36 42.9137 622.758 42.423C624.157 41.9324 625.361 41.0063 626.194 39.781L627.214 34.4625L625.852 31.858L619.699 29.0551L613.668 34.5057Z" fill="black"/>
<path d="M613.63 23.8999L617.83 24.891L618.75 20.1147C618.178 19.6816 617.482 19.4451 616.765 19.4408C616.048 19.4365 615.349 19.6645 614.773 20.0907C614.197 20.517 613.774 21.1184 613.568 21.8051C613.362 22.4918 613.384 23.2268 613.63 23.8999Z" fill="black"/>
<path d="M613.266 24.8995C612.344 25.2105 611.543 25.801 610.972 26.5888C610.402 27.3766 610.091 28.3225 610.084 29.295C610.083 30.235 610.368 31.1528 610.902 31.9266C611.436 32.7004 612.192 33.2934 613.071 33.6267L618.964 28.2998L617.881 25.9882L613.266 24.8995Z" fill="black"/>
<path d="M627.272 39.7809C627.842 40.2117 628.536 40.4468 629.251 40.4504C629.966 40.4541 630.663 40.2267 631.238 39.8018C631.813 39.3768 632.235 38.7773 632.441 38.0927C632.647 37.4083 632.626 36.6754 632.381 36.0038L628.184 35.0273L627.272 39.7809Z" fill="black"/>
<path d="M628.124 33.922L632.744 35.001C633.666 34.6908 634.469 34.1006 635.039 33.3125C635.61 32.5246 635.92 31.5782 635.927 30.6054C635.926 29.6675 635.64 28.752 635.106 27.9804C634.573 27.2088 633.818 26.6175 632.941 26.2851L626.898 31.5763L628.124 33.922Z" fill="black"/>
<path d="M648.162 35.5974L648.722 35.5403L648.761 36.6799C647.515 36.8681 646.258 36.9716 644.998 36.9894C643.609 36.9895 642.624 36.5875 642.045 35.7834C641.465 34.9792 641.176 33.7279 641.177 32.0295C641.176 28.6467 642.521 26.9546 645.21 26.9534C646.513 26.9533 647.484 27.3168 648.124 28.0439C648.765 28.771 649.086 29.9105 649.088 31.4624L649.012 32.5629L642.643 32.5633C642.643 33.6312 642.837 34.4224 643.223 34.9368C643.61 35.4512 644.281 35.7083 645.238 35.7083C646.198 35.7114 647.172 35.6744 648.162 35.5974ZM647.641 31.4104C647.641 30.2264 647.452 29.3902 647.073 28.9019C646.694 28.4135 646.076 28.1688 645.22 28.1678C644.364 28.1678 643.72 28.4251 643.289 28.9395C642.859 29.454 642.637 30.2777 642.624 31.4108L647.641 31.4104Z" fill="white"/>
<path d="M651.107 36.9125L651.106 24.2148L652.554 24.2147L652.555 36.9124L651.107 36.9125Z" fill="white"/>
<path d="M661.669 30.0583L661.669 34.9258C661.669 35.4141 662.87 35.388 662.87 35.388L662.797 36.6675C661.78 36.6676 660.938 36.7523 660.433 36.2624C659.341 36.7479 658.157 36.9949 656.961 36.987C656.074 36.9871 655.399 36.7359 654.934 36.2334C654.47 35.7309 654.238 35.0088 654.239 34.0667C654.239 33.1269 654.477 32.4351 654.954 31.9911C655.43 31.5472 656.176 31.2758 657.192 31.177L660.221 30.8886L660.221 30.0584C660.221 29.4073 660.08 28.9373 659.798 28.6487C659.643 28.5036 659.461 28.3912 659.262 28.3185C659.062 28.2458 658.851 28.2142 658.639 28.2255L654.836 28.2258L654.836 26.9511L658.543 26.9509C659.637 26.9508 660.431 27.202 660.926 27.7044C661.421 28.2069 661.668 28.9915 661.669 30.0583ZM655.722 33.995C655.722 35.179 656.211 35.771 657.187 35.7709C658.068 35.7699 658.943 35.6196 659.774 35.3264L660.217 35.1717L660.217 31.9875L657.366 32.2579C656.787 32.31 656.368 32.4773 656.111 32.7594C655.854 33.0415 655.724 33.4534 655.722 33.995Z" fill="white"/>
<path d="M667.319 28.2445C665.916 28.2446 665.214 28.733 665.214 29.7097C665.214 30.1612 665.377 30.4797 665.703 30.6653C666.028 30.8508 666.761 31.044 667.902 31.2447C669.048 31.4454 669.859 31.7253 670.334 32.0845C670.81 32.4437 671.048 33.1187 671.049 34.1096C671.049 35.1014 670.731 35.8286 670.094 36.291C669.457 36.7534 668.527 36.9851 667.305 36.9863C666.507 36.9864 663.844 36.6903 663.844 36.6903L663.922 35.4368C665.452 35.5832 666.558 35.6922 667.305 35.6921C668.052 35.6921 668.62 35.5732 669.013 35.3355C669.405 35.0978 669.6 34.699 669.6 34.139C669.6 33.579 669.437 33.1997 669.099 32.9995C668.76 32.7992 668.031 32.6105 666.899 32.4298C665.768 32.2492 664.962 31.9855 664.487 31.6388C664.011 31.2921 663.772 30.6475 663.772 29.7082C663.772 28.7689 664.097 28.0803 664.766 27.6244C665.435 27.1685 666.256 26.9487 667.246 26.9486C668.03 26.9486 670.754 27.1486 670.754 27.1486L670.754 28.4103C669.316 28.3469 668.141 28.2444 667.319 28.2445Z" fill="white"/>
<path d="M678.024 28.3968L674.955 28.397L674.956 33.0105C674.956 34.1163 675.036 34.843 675.197 35.1902C675.36 35.5386 675.741 35.7111 676.345 35.7111L678.062 35.5954L678.16 36.7919C677.509 36.9122 676.851 36.9834 676.19 37.0053C675.187 37.0053 674.493 36.7607 674.106 36.2712C673.72 35.7817 673.527 34.849 673.528 33.4729L673.528 28.3971L672.164 28.3972L672.164 27.1437L673.534 27.1436L673.534 24.1906L674.962 24.1905L674.962 27.1435L678.024 27.1433L678.024 28.3968Z" fill="white"/>
<path d="M680.036 25.9108L680.036 24.2308L681.483 24.2307L681.483 25.9107L680.036 25.9108ZM680.037 36.9106L680.036 27.1432L681.483 27.1431L681.484 36.9105L680.037 36.9106Z" fill="white"/>
<path d="M687.752 26.9489C688.475 26.9797 689.195 27.0574 689.908 27.1815L690.37 27.2385L690.313 28.4155C689.557 28.3197 688.796 28.2621 688.034 28.2431C686.94 28.2431 686.197 28.5036 685.806 29.0246C685.414 29.5456 685.217 30.5104 685.216 31.9191C685.217 33.33 685.4 34.3109 685.767 34.8623C686.134 35.4136 686.899 35.6903 688.062 35.6924L690.341 35.5196L690.4 36.7162C689.513 36.8665 688.617 36.9569 687.717 36.9866C686.213 36.9867 685.174 36.6004 684.601 35.8277C684.028 35.055 683.742 33.7527 683.742 31.9208C683.741 30.0878 684.05 28.8012 684.668 28.061C685.285 27.3208 686.313 26.9501 687.752 26.9489Z" fill="white"/>
</g>
<rect x="760.5" y="0.5" width="159" height="59" rx="5.5" stroke="#1B1B1B"/>
<g opacity="0.3">
<path fill-rule="evenodd" clip-rule="evenodd" d="M870.081 29.9132C870.081 25.6408 868.011 22.2698 864.056 22.2701C860.084 22.2703 857.681 25.6417 857.681 29.8807C857.682 34.904 860.519 37.4405 864.591 37.4403C866.577 37.4401 868.079 36.9894 869.214 36.3552L869.213 33.0174C868.079 33.5849 866.777 33.9354 865.125 33.9356C863.506 33.9357 862.071 33.3683 861.887 31.3991L870.048 31.3985C870.048 31.1816 870.081 30.3137 870.081 29.9132ZM861.837 28.3283C861.836 26.4425 862.988 25.658 864.039 25.6579C865.057 25.6579 866.142 26.4422 866.142 28.328L861.837 28.3283Z" fill="white"/>
<path fill-rule="evenodd" clip-rule="evenodd" d="M851.238 22.2709C849.603 22.271 848.552 23.0388 847.967 23.5729L847.75 22.5382L844.079 22.5384L844.08 41.9977L848.252 41.1129L848.269 36.3899C848.87 36.8238 849.754 37.4412 851.223 37.4411C854.21 37.4409 856.93 35.0376 856.93 29.7472C856.913 24.9074 854.159 22.2707 851.238 22.2709ZM850.238 33.7696C849.253 33.7697 848.669 33.4193 848.268 32.9854L848.251 26.7938C848.685 26.3098 849.286 25.976 850.237 25.9759C851.756 25.9758 852.808 27.678 852.808 29.8643C852.808 32.1006 851.773 33.7695 850.238 33.7696Z" fill="white"/>
<path fill-rule="evenodd" clip-rule="evenodd" d="M838.338 21.2872L842.527 20.3857L842.527 16.9978L838.338 17.8826L838.338 21.2872Z" fill="white"/>
<path d="M842.527 22.5553L838.338 22.5555L838.339 37.1583L842.528 37.1581L842.527 22.5553Z" fill="white"/>
<path fill-rule="evenodd" clip-rule="evenodd" d="M833.849 23.7908L833.582 22.5558L829.977 22.5561L829.978 37.1589L834.15 37.1586L834.15 27.262C835.134 25.9769 836.803 26.2105 837.32 26.394L837.32 22.5556C836.786 22.3553 834.833 21.9883 833.849 23.7908Z" fill="white"/>
<path fill-rule="evenodd" clip-rule="evenodd" d="M825.504 18.9349L821.432 19.803L821.416 33.1708C821.417 35.6408 823.269 37.4597 825.739 37.4596C827.108 37.4595 828.109 37.2091 828.66 36.9086L828.659 33.5208C828.125 33.7378 825.489 34.5056 825.489 32.0357L825.488 26.1111L828.659 26.1109L828.659 22.5562L825.488 22.5564L825.504 18.9349Z" fill="white"/>
<path fill-rule="evenodd" clip-rule="evenodd" d="M814.223 26.7961C814.223 26.1452 814.757 25.8949 815.642 25.8948C816.91 25.8947 818.512 26.2785 819.781 26.9626L819.78 23.0407C818.395 22.4901 817.027 22.2732 815.641 22.2733C812.253 22.2735 810.001 24.0427 810.001 26.9966C810.001 31.6028 816.343 30.868 816.343 32.854C816.343 33.6217 815.675 33.8721 814.741 33.8722C813.356 33.8723 811.587 33.305 810.185 32.5374L810.185 36.5093C811.737 37.1768 813.306 37.4604 814.741 37.4603C818.212 37.46 820.599 35.7409 820.599 32.7536C820.582 27.7803 814.223 28.6653 814.223 26.7961Z" fill="white"/>
</g>
<defs>
<clipPath id="clip0_721_253">
<rect width="82.3188" height="20" fill="white" transform="translate(39 20)"/>
</clipPath>
<clipPath id="clip1_721_253">
<rect width="94.8276" height="22" fill="white" transform="translate(223 19)"/>
</clipPath>
<clipPath id="clip2_721_253">
<rect width="81.3953" height="28" fill="white" transform="translate(609 16)"/>
</clipPath>
</defs>
</svg>
